<svg width="512" height="512" xmlns="http://www.w3.org/2000/svg"><path d="M450.255 434.511H61.745c-13.257 0-24.042-10.786-24.042-24.042V101.532c0-13.257 10.785-24.042 24.042-24.042h388.511c13.257 0 24.042 10.786 24.042 24.042v308.937c0 13.256-10.785 24.042-24.043 24.042zM61.745 97.489a4.046 4.046 0 00-4.042 4.042v308.937a4.046 4.046 0 004.042 4.042h388.511a4.046 4.046 0 004.042-4.042V101.532a4.046 4.046 0 00-4.042-4.042H61.745z" fill="#444B54"/><path d="M450.117 163.589H63.655c-13.298 0-24.118-10.785-24.118-24.042v-38.015c0-13.257 10.819-24.042 24.118-24.042h386.462c13.298 0 24.118 10.786 24.118 24.042v38.015c0 13.257-10.819 24.042-24.118 24.042zm-386.462-66.1c-2.271 0-4.118 1.813-4.118 4.042v38.015c0 2.229 1.847 4.042 4.118 4.042h386.462c2.271 0 4.118-1.813 4.118-4.042v-38.015c0-2.229-1.847-4.042-4.118-4.042H63.655z" fill="#444B54"/><path d="M93.73 128.69c-2.63 0-5.21-1.06-7.07-2.92a10.076 10.076 0 01-2.93-7.07c0-2.64 1.07-5.22 2.93-7.08 1.86-1.86 4.44-2.92 7.07-2.92s5.21 1.06 7.07 2.92c1.86 1.86 2.93 4.44 2.93 7.08 0 2.63-1.07 5.21-2.93 7.07a10.066 10.066 0 01-7.07 2.92zm48.76.01c-2.63 0-5.21-1.07-7.07-2.93a10.1 10.1 0 01-2.93-7.08c0-2.63 1.07-5.2 2.93-7.07 1.86-1.86 4.44-2.93 7.07-2.93s5.21 1.07 7.07 2.93c1.86 1.87 2.93 4.44 2.93 7.07a10.1 10.1 0 01-2.93 7.08 10.076 10.076 0 01-7.07 2.93zm48.76-.01c-2.63 0-5.21-1.06-7.07-2.92a10.076 10.076 0 01-2.93-7.07 10.1 10.1 0 012.93-7.08c1.86-1.86 4.44-2.92 7.07-2.92s5.21 1.06 7.07 2.92a10.1 10.1 0 012.93 7.08c0 2.63-1.07 5.21-2.93 7.07a10.066 10.066 0 01-7.07 2.92zm56.559 264.645c-59.525 0-107.952-48.427-107.952-107.952s48.427-107.952 107.952-107.952S355.76 225.858 355.76 285.383s-48.427 107.952-107.951 107.952zm0-195.903c-48.497 0-87.952 39.455-87.952 87.952s39.455 87.952 87.952 87.952 87.952-39.455 87.952-87.952-39.456-87.952-87.952-87.952z" fill="#444B54"/><path d="M208.249 284.528c-14.924 0-27.065-12.142-27.065-27.065 0-14.924 12.142-27.066 27.065-27.066s27.065 12.142 27.065 27.066-12.141 27.065-27.065 27.065zm0-34.131c-3.896 0-7.065 3.17-7.065 7.066s3.169 7.065 7.065 7.065 7.065-3.169 7.065-7.065-3.169-7.066-7.065-7.066zm77.005 34.131c-14.924 0-27.065-12.142-27.065-27.065 0-14.924 12.142-27.066 27.065-27.066s27.065 12.142 27.065 27.066-12.141 27.065-27.065 27.065zm0-34.131c-3.896 0-7.065 3.17-7.065 7.066s3.169 7.065 7.065 7.065 7.065-3.169 7.065-7.065-3.169-7.066-7.065-7.066zm-37.442 113.177c-28.48 0-51.651-23.17-51.651-51.65 0-5.523 4.477-10 10-10h83.294c5.523 0 10 4.477 10 10 0 28.48-23.167 51.65-51.643 51.65zm-30.032-41.65c4.195 12.567 16.073 21.65 30.032 21.65 13.956 0 25.831-9.083 30.025-21.65H217.78z" fill="#444B54"/><path d="M464.298 410.468c0 7.755-6.287 14.042-14.042 14.042H61.745c-7.755 0-14.042-6.287-14.042-14.042V101.532c0-7.755 6.287-14.042 14.042-14.042h388.511c7.755 0 14.042 6.287 14.042 14.042v308.936z" fill="#D9DCE1"/><path d="M450.255 434.511H61.745c-13.257 0-24.042-10.786-24.042-24.042V101.532c0-13.257 10.785-24.042 24.042-24.042h388.511c13.257 0 24.042 10.786 24.042 24.042v308.937c0 13.256-10.785 24.042-24.043 24.042zM61.745 97.489a4.046 4.046 0 00-4.042 4.042v308.937a4.046 4.046 0 004.042 4.042h388.511a4.046 4.046 0 004.042-4.042V101.532a4.046 4.046 0 00-4.042-4.042H61.745z" fill="#444B54"/><path d="M464.235 139.547c0 7.755-6.321 14.042-14.118 14.042H63.655c-7.797 0-14.118-6.287-14.118-14.042v-38.015c0-7.755 6.321-14.042 14.118-14.042h386.462c7.797 0 14.118 6.287 14.118 14.042v38.015z" fill="#65A0D6"/><path d="M450.117 163.589H63.655c-13.298 0-24.118-10.785-24.118-24.042v-38.015c0-13.257 10.819-24.042 24.118-24.042h386.462c13.298 0 24.118 10.786 24.118 24.042v38.015c0 13.257-10.819 24.042-24.118 24.042zm-386.462-66.1c-2.271 0-4.118 1.813-4.118 4.042v38.015c0 2.229 1.847 4.042 4.118 4.042h386.462c2.271 0 4.118-1.813 4.118-4.042v-38.015c0-2.229-1.847-4.042-4.118-4.042H63.655z" fill="#444B54"/><path d="M93.73 128.69c-2.63 0-5.21-1.06-7.07-2.92a10.076 10.076 0 01-2.93-7.07c0-2.64 1.07-5.22 2.93-7.08 1.86-1.86 4.44-2.92 7.07-2.92s5.21 1.06 7.07 2.92c1.86 1.86 2.93 4.44 2.93 7.08 0 2.63-1.07 5.21-2.93 7.07a10.066 10.066 0 01-7.07 2.92zm48.76.01c-2.63 0-5.21-1.07-7.07-2.93a10.1 10.1 0 01-2.93-7.08c0-2.63 1.07-5.2 2.93-7.07 1.86-1.86 4.44-2.93 7.07-2.93s5.21 1.07 7.07 2.93c1.86 1.87 2.93 4.44 2.93 7.07a10.1 10.1 0 01-2.93 7.08 10.076 10.076 0 01-7.07 2.93zm48.76-.01c-2.63 0-5.21-1.06-7.07-2.92a10.076 10.076 0 01-2.93-7.07 10.1 10.1 0 012.93-7.08c1.86-1.86 4.44-2.92 7.07-2.92s5.21 1.06 7.07 2.92a10.1 10.1 0 012.93 7.08c0 2.63-1.07 5.21-2.93 7.07a10.066 10.066 0 01-7.07 2.92z" fill="#444B54"/><circle cx="247.809" cy="285.383" fill="#3C74BA" r="97.952"/><path d="M247.809 393.335c-59.525 0-107.952-48.427-107.952-107.952s48.427-107.952 107.952-107.952S355.76 225.858 355.76 285.383s-48.427 107.952-107.951 107.952zm0-195.903c-48.497 0-87.952 39.455-87.952 87.952s39.455 87.952 87.952 87.952 87.952-39.455 87.952-87.952-39.456-87.952-87.952-87.952z" fill="#444B54"/><circle cx="208.249" cy="257.463" fill="#D9DCE1" r="17.065"/><path d="M208.249 284.528c-14.924 0-27.065-12.142-27.065-27.065 0-14.924 12.142-27.066 27.065-27.066s27.065 12.142 27.065 27.066-12.141 27.065-27.065 27.065zm0-34.131c-3.896 0-7.065 3.17-7.065 7.066s3.169 7.065 7.065 7.065 7.065-3.169 7.065-7.065-3.169-7.066-7.065-7.066z" fill="#444B54"/><circle cx="285.254" cy="257.463" fill="#D9DCE1" r="17.065"/><path d="M285.254 284.528c-14.924 0-27.065-12.142-27.065-27.065 0-14.924 12.142-27.066 27.065-27.066s27.065 12.142 27.065 27.066-12.141 27.065-27.065 27.065zm0-34.131c-3.896 0-7.065 3.17-7.065 7.066s3.169 7.065 7.065 7.065 7.065-3.169 7.065-7.065-3.169-7.066-7.065-7.066z" fill="#444B54"/><path d="M206.161 311.924c0 23.008 18.643 41.65 41.651 41.65 23 0 41.643-18.642 41.643-41.65h-83.294z" fill="#D9DCE1"/><path d="M247.812 363.574c-28.48 0-51.651-23.17-51.651-51.65 0-5.523 4.477-10 10-10h83.294c5.523 0 10 4.477 10 10 0 28.48-23.167 51.65-51.643 51.65zm-30.032-41.65c4.195 12.567 16.073 21.65 30.032 21.65 13.956 0 25.831-9.083 30.025-21.65H217.78z" fill="#444B54"/></svg>